<?xml version="1.0" encoding="utf-8"?>
<!-- Generator: Adobe Illustrator 19.1.0, SVG Export Plug-In . SVG Version: 6.00 Build 0)  -->
<svg version="1.1" id="Layer_1" xmlns:sketch="http://www.bohemiancoding.com/sketch/ns"
	 xmlns="http://www.w3.org/2000/svg" xmlns:xlink="http://www.w3.org/1999/xlink" x="0px" y="0px" width="450px" height="486px"
	 viewBox="-427 -58.8 450 486" style="enable-background:new -427 -58.8 450 486;" xml:space="preserve">
<style type="text/css">
	.st0{fill:url(#SVGID_1_);}
	.st1{fill:url(#Oval-1_2_);}
	.st2{fill:url(#path-5_4_);stroke:#979797;}
	.st3{fill:none;}
	.st4{fill:url(#path-5_5_);}
	.st5{fill:url(#Rectangle-1_1_);}
	.st6{fill:url(#Rectangle-33_1_);}
	.st7{fill:#ACACAC;}
	.st8{fill:#EDEDED;}
	.st9{fill:#FE4F4F;}
	.st10{fill:#CF1D13;}
</style>
<radialGradient id="SVGID_1_" cx="-205" cy="1285.6014" r="170.7864" gradientTransform="matrix(1.2842 0 0 0.4422 61.2706 -218.8256)" gradientUnits="userSpaceOnUse">
	<stop  offset="0.466" style="stop-color:#000000;stop-opacity:0.8"/>
	<stop  offset="0.508" style="stop-color:#000000;stop-opacity:0.733"/>
	<stop  offset="0.964" style="stop-color:#000000;stop-opacity:0"/>
</radialGradient>
<ellipse class="st0" cx="-202" cy="349.7" rx="225" ry="77.5"/>
<title>Safari Icon</title>
<desc>Created with Sketch.</desc>
<g id="Page-1" sketch:type="MSPage">
	<g id="Safari-Icon" transform="translate(7.000000, 4.000000)" sketch:type="MSLayerGroup">
		
			<linearGradient id="Oval-1_2_" gradientUnits="userSpaceOnUse" x1="-880.5356" y1="6.001221e-02" x2="-880.5356" y2="1.0189" gradientTransform="matrix(450 0 0 450 396032 -89.8055)">
			<stop  offset="0" style="stop-color:#FFFFFF"/>
			<stop  offset="1" style="stop-color:#CCCCCC"/>
		</linearGradient>
		<path id="Oval-1" sketch:type="MSShapeGroup" class="st1" d="M16,162.2c0-124.3-100.7-225-225-225s-225,100.7-225,225
			s100.7,225,225,225S16,286.5,16,162.2z M-415,162.2c0-113.8,92.2-206,206-206S-3,48.4-3,162.2s-92.2,206-206,206
			S-415,276-415,162.2z"/>
		<g id="Oval-1_1_">
			<g sketch:type="MSShapeGroup">
				
					<radialGradient id="path-5_4_" cx="-880.4567" cy="0.5768" r="0.4588" gradientTransform="matrix(416 0 0 415 366061 -65.805)" gradientUnits="userSpaceOnUse">
					<stop  offset="0" style="stop-color:#1CA9C8"/>
					<stop  offset="1" style="stop-color:#1266BC"/>
				</radialGradient>
				<ellipse id="path-5" class="st2" cx="-209" cy="161.7" rx="208" ry="207.5"/>
			</g>
			<g>
				<ellipse id="path-5_1_" class="st3" cx="-209" cy="161.7" rx="208" ry="207.5"/>
			</g>
			<g>
				<ellipse id="path-5_2_" class="st3" cx="-209" cy="161.7" rx="208" ry="207.5"/>
			</g>
			<g>
				
					<radialGradient id="path-5_5_" cx="-880.4567" cy="0.5482" r="0.5267" gradientTransform="matrix(416 0 0 415 366061 -65.805)" gradientUnits="userSpaceOnUse">
					<stop  offset="0" style="stop-color:#019CB8"/>
					<stop  offset="0.2219" style="stop-color:#00A8CB"/>
					<stop  offset="0.4466" style="stop-color:#009AC7"/>
					<stop  offset="1" style="stop-color:#0A69DB"/>
				</radialGradient>
				<ellipse id="path-5_3_" class="st4" cx="-209" cy="161.7" rx="208" ry="207.5"/>
			</g>
		</g>
		
			<linearGradient id="Rectangle-1_1_" gradientUnits="userSpaceOnUse" x1="-880.4105" y1="-9.733305e-02" x2="-880.4105" y2="1.0008" gradientTransform="matrix(398.3812 0 0 398.3332 350530 -53.4776)">
			<stop  offset="0" style="stop-color:#FFFFFF"/>
			<stop  offset="1" style="stop-color:#CCCCCC"/>
		</linearGradient>
		<path id="Rectangle-1" sketch:type="MSShapeGroup" class="st5" d="M-209-36.8c-1.7,0-3,1.3-3,3v36c0,1.7,1.3,3,3,3s3-1.3,3-3v-36
			C-206-35.5-207.3-36.8-209-36.8z M-169.6-32.4c-1.7-0.4-3.3,0.6-3.6,2.3l-7.5,35.2c-0.3,1.6,0.7,3.2,2.3,3.6
			c1.6,0.3,3.2-0.7,3.6-2.3l7.5-35.2C-167-30.5-168-32.1-169.6-32.4z M-132.7-22c-1.5-0.6-3.3,0.1-3.9,1.7l-13.5,33.4
			c-0.6,1.5,0.1,3.3,1.7,3.9c1.5,0.6,3.3-0.1,3.9-1.7l13.5-33.4C-130.4-19.6-131.2-21.4-132.7-22z M-98.5-3.2
			c-1.4-0.9-3.2-0.6-4.2,0.8l-20.1,29.9c-0.9,1.4-0.6,3.2,0.8,4.2c1.4,0.9,3.2,0.6,4.2-0.8l20.1-29.8C-96.8-0.4-97.2-2.3-98.5-3.2z
			 M-68.2,21.8c-1.1-1.2-3-1.3-4.2-0.1l-26.4,24.5c-1.2,1.1-1.3,3-0.2,4.2c1.1,1.2,3,1.3,4.2,0.1L-68.5,26
			C-67.2,24.9-67.1,23-68.2,21.8z M-43.1,51.8c-0.9-1.4-2.8-1.8-4.2-0.9l-30.2,19.6c-1.4,0.9-1.8,2.8-0.9,4.2
			c0.9,1.4,2.8,1.8,4.2,0.9L-44,56C-42.6,55.1-42.2,53.2-43.1,51.8z M-24.8,85.8c-0.6-1.5-2.4-2.3-3.9-1.7l-33.4,13.5
			c-1.5,0.6-2.3,2.4-1.7,3.9s2.4,2.3,3.9,1.7l33.4-13.5C-24.9,89-24.2,87.3-24.8,85.8z M-13.2,123.7c-0.3-1.6-1.9-2.7-3.5-2.4
			l-35.3,6.9c-1.6,0.3-2.7,1.9-2.4,3.5s1.9,2.7,3.5,2.4l35.3-6.9C-13.9,126.9-12.9,125.4-13.2,123.7z M-9.8,162c0-1.7-1.3-3-3-3h-36
			c-1.7,0-3,1.3-3,3s1.3,3,3,3h36C-11.2,165-9.8,163.6-9.8,162z M-13.9,200.9c0.3-1.6-0.8-3.2-2.4-3.5l-35.3-6.9
			c-1.6-0.3-3.2,0.7-3.5,2.4c-0.3,1.6,0.8,3.2,2.4,3.5l35.3,6.9C-15.8,203.6-14.3,202.6-13.9,200.9z M-25.4,238.6
			c0.6-1.5-0.1-3.3-1.6-3.9l-33.1-14.1c-1.5-0.6-3.3,0.1-3.9,1.6c-0.6,1.5,0.1,3.3,1.6,3.9l33.1,14.1
			C-27.8,240.8-26,240.1-25.4,238.6z M-44.4,272.6c1-1.4,0.6-3.2-0.7-4.2l-29.5-20.6c-1.4-1-3.2-0.6-4.2,0.7c-1,1.4-0.6,3.2,0.7,4.2
			l29.5,20.6C-47.2,274.3-45.3,274-44.4,272.6z M-67.5,303.2c1.2-1.2,1.1-3.1-0.1-4.2l-25.9-25c-1.2-1.2-3.1-1.1-4.2,0.1
			c-1.2,1.2-1.1,3.1,0.1,4.2l25.9,25C-70.5,304.4-68.6,304.4-67.5,303.2z M-98.5,326.9c1.4-0.9,1.7-2.8,0.8-4.2l-20.1-29.8
			c-0.9-1.4-2.8-1.7-4.2-0.8c-1.4,0.9-1.7,2.8-0.8,4.2l20.1,29.8C-101.8,327.5-99.9,327.8-98.5,326.9z M-133,345.3
			c1.5-0.7,2.2-2.5,1.5-4l-14.6-32.9c-0.7-1.5-2.5-2.2-4-1.5s-2.2,2.5-1.5,4l14.6,32.9C-136.3,345.3-134.5,346-133,345.3z
			 M-169.6,357.2c1.6-0.3,2.7-1.9,2.3-3.6l-7.5-35.2c-0.3-1.6-1.9-2.7-3.6-2.3c-1.6,0.3-2.7,1.9-2.3,3.6l7.5,35.2
			C-172.8,356.5-171.2,357.5-169.6,357.2z M-209,361.5c1.7,0,3-1.3,3-3v-36c0-1.7-1.3-3-3-3s-3,1.3-3,3v36
			C-212,360.2-210.7,361.5-209,361.5z M-248,357.5c1.6,0.3,3.2-0.7,3.6-2.3l7.5-35.2c0.3-1.6-0.7-3.2-2.3-3.6
			c-1.6-0.3-3.2,0.7-3.6,2.3l-7.5,35.2C-250.7,355.6-249.6,357.2-248,357.5z M-286,346.3c1.5,0.7,3.3,0,4-1.5l14.6-32.9
			c0.7-1.5,0-3.3-1.5-4s-3.3,0-4,1.5l-14.6,32.9C-288.2,343.9-287.5,345.6-286,346.3z M-319.4,327.2c1.4,0.9,3.2,0.6,4.2-0.8
			l20.1-29.8c0.9-1.4,0.6-3.2-0.8-4.2c-1.4-0.9-3.2-0.6-4.2,0.8l-20.1,29.8C-321.1,324.4-320.8,326.3-319.4,327.2z M-350.5,304.2
			c1.2,1.2,3.1,1.2,4.2,0.1l25.9-25c1.2-1.2,1.2-3.1,0.1-4.2c-1.2-1.2-3.1-1.2-4.2-0.1l-25.9,25C-351.7,301.1-351.7,303-350.5,304.2
			z M-375,273c0.9,1.4,2.8,1.8,4.2,0.9l30.2-19.6c1.4-0.9,1.8-2.8,0.9-4.2c-0.9-1.4-2.8-1.8-4.2-0.9l-30.2,19.6
			C-375.5,269.8-375.9,271.6-375,273z M-392.6,238.3c0.6,1.5,2.4,2.2,3.9,1.6l33.1-14.1c1.5-0.6,2.2-2.4,1.6-3.9
			c-0.6-1.5-2.4-2.2-3.9-1.6l-33.1,14.1C-392.6,235-393.3,236.8-392.6,238.3z M-404.1,200.4c0.3,1.6,1.9,2.7,3.5,2.4l35.3-6.9
			c1.6-0.3,2.7-1.9,2.4-3.5c-0.3-1.6-1.9-2.7-3.5-2.4l-35.3,6.9C-403.3,197.2-404.4,198.8-404.1,200.4z M-408.2,162c0,1.7,1.3,3,3,3
			h36c1.7,0,3-1.3,3-3s-1.3-3-3-3h-36C-406.8,159-408.2,160.3-408.2,162z M-403.8,123.7c-0.3,1.6,0.8,3.2,2.4,3.5l35.3,6.9
			c1.6,0.3,3.2-0.7,3.5-2.4c0.3-1.6-0.8-3.2-2.4-3.5l-35.3-6.9C-401.9,121-403.5,122.1-403.8,123.7z M-392.9,86.4
			c-0.6,1.5,0.1,3.3,1.7,3.9l33.4,13.5c1.5,0.6,3.3-0.1,3.9-1.7c0.6-1.5-0.1-3.3-1.7-3.9L-389,84.7
			C-390.5,84.2-392.3,84.9-392.9,86.4z M-374.9,51.8c-0.9,1.4-0.5,3.3,0.9,4.2l30.2,19.6c1.4,0.9,3.3,0.5,4.2-0.9
			c0.9-1.4,0.5-3.3-0.9-4.2l-30.2-19.6C-372.1,50.1-374,50.5-374.9,51.8z M-350,21.3c-1.2,1.2-1.2,3.1,0,4.2l25.5,25.5
			c1.2,1.2,3.1,1.2,4.2,0c1.2-1.2,1.2-3.1,0-4.2l-25.5-25.5C-346.9,20.2-348.8,20.2-350,21.3z M-319.5-3.2c-1.4,0.9-1.7,2.8-0.8,4.2
			l20.1,29.8c0.9,1.4,2.8,1.7,4.2,0.8c1.4-0.9,1.7-2.8,0.8-4.2l-20.1-29.8C-316.2-3.7-318.1-4.1-319.5-3.2z M-285.1-21.5
			c-1.5,0.6-2.2,2.4-1.6,3.9l14.1,33.1c0.6,1.5,2.4,2.2,3.9,1.6c1.5-0.6,2.2-2.4,1.6-3.9l-14.1-33.1
			C-281.8-21.4-283.6-22.1-285.1-21.5z M-247.6-33.3c-1.6,0.3-2.7,1.9-2.4,3.5l6.9,35.3c0.3,1.6,1.9,2.7,3.5,2.4
			c1.6-0.3,2.7-1.9,2.4-3.5l-6.9-35.3C-244.4-32.5-246-33.6-247.6-33.3z"/>
		
			<linearGradient id="Rectangle-33_1_" gradientUnits="userSpaceOnUse" x1="-880.3677" y1="5.184159e-02" x2="-880.4232" y2="1.1143" gradientTransform="matrix(395.8772 -41.6084 41.6457 396.2327 348295.3125 -36730.1211)">
			<stop  offset="0" style="stop-color:#FFFFFF"/>
			<stop  offset="1" style="stop-color:#CCCCCC"/>
		</linearGradient>
		<path id="Rectangle-33" sketch:type="MSShapeGroup" class="st6" d="M-226.8-36.2c-1.7,0.1-2.9,1.5-2.8,3.2l1.1,16
			c0.1,1.7,1.6,2.9,3.2,2.8c1.7-0.1,2.9-1.5,2.8-3.2l-1.1-16C-223.8-35.1-225.2-36.3-226.8-36.2z M-188-36.4
			c-1.7-0.1-3.1,1.1-3.3,2.7l-1.4,15.9c-0.1,1.7,1.1,3.1,2.7,3.3c1.7,0.1,3.1-1.1,3.3-2.7l1.4-15.9C-185.2-34.8-186.4-36.2-188-36.4
			z M-150.5-28c-1.6-0.5-3.3,0.4-3.7,2l-4.8,15.3c-0.5,1.6,0.4,3.3,2,3.7c1.6,0.5,3.3-0.4,3.7-2l4.7-15.3
			C-148.1-25.8-149-27.5-150.5-28z M-114.1-13.5c-1.4-0.8-3.3-0.3-4.1,1.2l-7.8,14c-0.8,1.4-0.3,3.3,1.2,4.1
			c1.4,0.8,3.3,0.3,4.1-1.2l7.8-14C-112.1-10.8-112.6-12.7-114.1-13.5z M-81.4,7.9c-1.3-1-3.2-0.8-4.2,0.4l-10.1,12.4
			c-1,1.3-0.8,3.2,0.4,4.2c1.3,1,3.2,0.8,4.2-0.4L-81,12.1C-79.9,10.8-80.1,8.9-81.4,7.9z M-67.2,21.8c-1.1-1.2-3-1.3-4.2-0.2
			l-11.9,10.7c-1.2,1.1-1.3,3-0.2,4.2s3,1.3,4.2,0.2L-67.4,26C-66.2,24.9-66.1,23-67.2,21.8z M-53.6,36.2c-1-1.3-2.9-1.5-4.2-0.4
			l-12.4,10.1c-1.3,1-1.5,2.9-0.4,4.2c1,1.3,2.9,1.5,4.2,0.4L-54,40.4C-52.8,39.4-52.6,37.5-53.6,36.2z M-32,68.1
			c-0.8-1.5-2.6-2-4.1-1.2l-14.1,7.5c-1.5,0.8-2,2.6-1.2,4.1s2.6,2,4.1,1.2l14.1-7.5C-31.8,71.4-31.2,69.6-32,68.1z M-17.1,104.1
			c-0.5-1.6-2.2-2.4-3.8-1.9l-15.2,4.9c-1.6,0.5-2.4,2.2-1.9,3.8s2.2,2.4,3.8,1.9l15.2-4.9C-17.5,107.3-16.6,105.6-17.1,104.1z
			 M-9.3,142.2c-0.2-1.6-1.6-2.8-3.3-2.7l-15.9,1.7c-1.6,0.2-2.8,1.7-2.7,3.3c0.2,1.6,1.6,2.8,3.3,2.7l15.9-1.7
			C-10.3,145.3-9.1,143.9-9.3,142.2z M-9.3,182c0.2-1.6-1-3.1-2.7-3.3l-15.9-1.7c-1.6-0.2-3.1,1-3.3,2.7c-0.2,1.6,1,3.1,2.7,3.3
			l15.9,1.7C-11,184.9-9.5,183.7-9.3,182z M-17,219.1c0.4-1.6-0.6-3.2-2.2-3.6l-15.5-3.9c-1.6-0.4-3.2,0.6-3.6,2.2
			c-0.4,1.6,0.6,3.2,2.2,3.6l15.5,3.9C-19.1,221.7-17.4,220.7-17,219.1z M-33,256.3c0.8-1.4,0.3-3.3-1.2-4.1l-14-7.8
			c-1.4-0.8-3.3-0.3-4.1,1.2c-0.8,1.4-0.3,3.3,1.2,4.1l14,7.8C-35.6,258.3-33.8,257.8-33,256.3z M-53.8,288.3c1-1.3,0.8-3.2-0.5-4.2
			l-12.6-9.8c-1.3-1-3.2-0.8-4.2,0.5s-0.8,3.2,0.5,4.2l12.6,9.8C-56.7,289.8-54.8,289.6-53.8,288.3z M-81.5,316
			c1.3-1.1,1.4-3,0.4-4.2l-10.3-12.3c-1.1-1.3-3-1.4-4.2-0.4c-1.3,1.1-1.4,3-0.4,4.2l10.3,12.3C-84.7,316.9-82.8,317.1-81.5,316z
			 M-113.9,337.9c1.4-0.8,1.9-2.7,1.1-4.1l-8-13.9c-0.8-1.4-2.7-1.9-4.1-1.1s-1.9,2.7-1.1,4.1l8,13.9
			C-117.2,338.2-115.4,338.7-113.9,337.9z M-149.4,353.2c1.6-0.5,2.4-2.2,1.9-3.8l-4.9-15.2c-0.5-1.6-2.2-2.4-3.8-1.9
			c-1.6,0.5-2.4,2.2-1.9,3.8l4.9,15.2C-152.6,352.9-150.9,353.7-149.4,353.2z M-188.1,360.3c1.6-0.2,2.8-1.6,2.7-3.3l-1.7-15.9
			c-0.2-1.6-1.7-2.8-3.3-2.7c-1.6,0.2-2.8,1.6-2.7,3.3l1.7,15.9C-191.2,359.3-189.8,360.5-188.1,360.3z M-227.4,360.4
			c1.6,0.2,3.1-1,3.3-2.6l1.9-15.9c0.2-1.6-1-3.1-2.6-3.3c-1.6-0.2-3.1,1-3.3,2.6l-1.9,15.9C-230.2,358.7-229,360.2-227.4,360.4z
			 M-265.3,352.7c1.6,0.5,3.3-0.5,3.7-2.1l4.4-15.4c0.5-1.6-0.5-3.3-2.1-3.7c-1.6-0.5-3.3,0.5-3.7,2.1l-4.4,15.4
			C-267.8,350.6-266.9,352.2-265.3,352.7z M-301.7,337.4c1.5,0.8,3.3,0.2,4-1.3l7.3-14.3c0.8-1.5,0.2-3.3-1.3-4
			c-1.5-0.8-3.3-0.2-4,1.3l-7.3,14.3C-303.8,334.9-303.2,336.7-301.7,337.4z M-334.2,316.8c1.3,1,3.2,0.8,4.2-0.4l10.1-12.4
			c1-1.3,0.8-3.2-0.4-4.2c-1.3-1-3.2-0.8-4.2,0.4l-10.1,12.4C-335.7,313.9-335.5,315.7-334.2,316.8z M-362,288
			c1,1.3,2.9,1.5,4.2,0.5l12.6-9.8c1.3-1,1.5-2.9,0.5-4.2c-1-1.3-2.9-1.5-4.2-0.5l-12.6,9.8C-362.8,284.8-363,286.7-362,288z
			 M-383.3,256.4c0.8,1.5,2.6,2,4.1,1.2l14.1-7.5c1.5-0.8,2-2.6,1.2-4.1s-2.6-2-4.1-1.2l-14.1,7.5
			C-383.5,253.1-384.1,254.9-383.3,256.4z M-398.4,219.9c0.5,1.6,2.2,2.5,3.7,2l15.3-4.7c1.6-0.5,2.5-2.2,2-3.7
			c-0.5-1.6-2.2-2.5-3.7-2l-15.3,4.7C-398,216.6-398.9,218.3-398.4,219.9z M-405.4,181.3c0.2,1.6,1.6,2.8,3.3,2.7l15.9-1.7
			c1.6-0.2,2.8-1.7,2.7-3.3c-0.2-1.6-1.6-2.8-3.3-2.7l-15.9,1.7C-404.4,178.2-405.6,179.7-405.4,181.3z M-406.5,143
			c-0.1,1.7,1.2,3.1,2.8,3.2l16,0.8c1.7,0.1,3.1-1.2,3.2-2.8c0.1-1.7-1.2-3.1-2.8-3.2l-16-0.8C-405,140-406.4,141.3-406.5,143z
			 M-398.6,104.4c-0.5,1.6,0.4,3.3,2,3.7l15.3,4.7c1.6,0.5,3.3-0.4,3.7-2c0.5-1.6-0.4-3.3-2-3.7l-15.3-4.7
			C-396.4,101.9-398.1,102.8-398.6,104.4z M-382.9,69.1c-0.8,1.5-0.2,3.3,1.2,4.1l14.1,7.5c1.5,0.8,3.3,0.2,4.1-1.2
			c0.8-1.5,0.2-3.3-1.2-4.1l-14.1-7.5C-380.3,67.1-382.2,67.6-382.9,69.1z M-361.4,36.5c-1,1.3-0.8,3.2,0.4,4.2l12.4,10.1
			c1.3,1,3.2,0.8,4.2-0.4c1-1.3,0.8-3.2-0.4-4.2l-12.4-10.1C-358.5,35-360.4,35.2-361.4,36.5z M-334.2,9.2c-1.3,1.1-1.4,3-0.3,4.2
			l10.5,12.1c1.1,1.3,3,1.4,4.2,0.3c1.3-1.1,1.4-3,0.3-4.2L-330,9.5C-331,8.3-332.9,8.1-334.2,9.2z M-301.9-12.8
			c-1.4,0.8-2,2.6-1.2,4.1l7.8,14c0.8,1.4,2.6,2,4.1,1.2c1.4-0.8,2-2.6,1.2-4.1l-7.8-14C-298.7-13-300.5-13.6-301.9-12.8z
			 M-265.6-28c-1.6,0.5-2.4,2.2-1.9,3.8l4.9,15.2c0.5,1.6,2.2,2.4,3.8,1.9c1.6-0.5,2.4-2.2,1.9-3.8l-4.9-15.2
			C-262.4-27.7-264.1-28.5-265.6-28z"/>
		<g id="Triangle-1" sketch:type="MSShapeGroup">
			<path class="st7" d="M-343.8,298.2c0,0,137.1-139.6,137.2-139.5c8.1,7.4,25.4,23.2,25.4,23.2L-343.8,298.2z"/>
		</g>
		<polygon id="Triangle-3" sketch:type="MSShapeGroup" class="st8" points="-344,298.5 -206.2,158.3 -234.5,138.2 		">
		</polygon>
		<polygon id="Triangle-2" sketch:type="MSShapeGroup" class="st9" points="-82.2,9.5 -206.5,158.8 -234.5,138.2 		">
		</polygon>
		<g id="Triangle-4" sketch:type="MSShapeGroup">
			<path class="st10" d="M-180.4,180.5c32.7-56.9,98-170.8,98-170.8l-124.2,149l25.2,23.5L-180.4,180.5z"/>
		</g>
	</g>
</g>
</svg>
